<svg 
 xmlns="http://www.w3.org/2000/svg"
 xmlns:xlink="http://www.w3.org/1999/xlink"
 width="18px" height="18px">
<path fill-rule="evenodd"  fill="rgb(79, 191, 201)"
 d="M17.000,12.499 C15.800,12.499 14.600,12.299 13.400,11.899 C13.100,11.799 12.700,11.899 12.400,12.100 L10.200,14.299 C7.400,12.899 5.100,10.500 3.600,7.699 L5.800,5.499 C6.100,5.199 6.200,4.799 6.000,4.499 C5.700,3.400 5.500,2.199 5.500,0.999 C5.500,0.399 5.100,-0.000 4.500,-0.000 L1.000,-0.000 C0.400,-0.000 -0.000,0.399 -0.000,0.999 C-0.000,10.399 7.600,17.999 17.000,17.999 C17.600,17.999 18.000,17.600 18.000,16.999 L18.000,13.499 C18.000,12.899 17.600,12.499 17.000,12.499 ZM16.000,8.999 L18.000,8.999 C18.000,3.999 14.000,-0.000 9.000,-0.000 L9.000,2.000 C12.900,2.000 16.000,5.100 16.000,8.999 ZM12.000,8.999 L14.000,8.999 C14.000,6.199 11.800,3.999 9.000,3.999 L9.000,5.999 C10.700,5.999 12.000,7.299 12.000,8.999 Z"/>
</svg>